<svg width="140" height="40" viewBox="0 0 140 40" fill="none" xmlns="http://www.w3.org/2000/svg">
<g clip-path="url(#clip0_266_4087)">
<path d="M27.057 24.3523L28.1303 21.3241M11.986 23.1138V27.9807L14.14 26.7701V24.3415M27.0587 7.40069V4.97951L11.9803 13.4536V18.296L14.1422 17.081M39.9833 12.243L24.9049 20.7172M39.9833 12.243L29.213 6.1901L14.1346 14.6642M39.9833 12.243L39.9834 14.6642L37.8294 15.8747V23.1739M24.9049 20.7172L14.1346 14.6642M24.9049 20.7172V30.3918L27.0587 31.6023M24.9049 20.7172L24.9051 30.4019L27.0591 29.1913V21.9278L31.3568 19.5124L27.0581 31.6022L27.0587 31.6023M14.1346 14.6642V17.0854L22.7509 21.9278V26.7733L9.83737 19.5159V29.171L22.7617 36.4331M29.2126 8.62062L35.6749 12.2524L33.5374 13.4536M29.2126 8.62062L18.4423 14.6736L20.5565 15.8617M29.2126 8.62062V11.0271M11.9914 13.4536L27.0698 4.97951L24.9157 3.76892L9.83737 12.243M11.9914 13.4536L9.83737 12.243M11.9914 13.4536V18.296L9.83737 17.0854V12.243M29.2126 11.0271L20.5565 15.8617M29.2126 11.0271L33.5374 13.4536M20.5565 15.8617L24.9046 18.3053L33.5374 13.4536M27.0587 31.6023V34.0235M27.0587 34.0235L24.9047 32.8129V30.4016L22.7617 29.1973V29.2006L11.9914 23.1476V27.9589L22.7617 34.0119M27.0587 34.0235L33.5165 30.4019M22.7617 34.0119V36.4331M22.7617 34.0119L24.9159 32.8013V35.2225L22.7617 36.4331M39.9834 24.3489L37.8294 25.5594V23.1739M39.9834 24.3489V26.7701L37.8294 27.9806V30.4019L35.6754 31.6125M39.9834 24.3489L37.8294 23.1739M35.6754 31.6125V29.1912L33.5165 30.4019M35.6754 31.6125L33.5165 30.4019M35.6751 26.7599L30.0086 29.9445L31.082 26.9089M35.6751 26.7599V26.7701L35.6754 26.77V17.0853L34.2778 17.8707L33.5165 20.0238M35.6751 26.7599L33.6105 25.5594M33.6105 25.5594L33.5165 20.0238M33.6105 25.5594L31.082 26.9089M33.5165 20.0238L31.082 26.9089M22.7563 26.7701L9.83191 19.5066L11.986 18.296L22.7563 24.3489V26.7701ZM14.14 26.7666L24.9103 32.8196L22.7562 34.0302L11.9859 27.9772L14.14 26.7666Z" stroke="#4F46E5" stroke-width="0.5" stroke-linejoin="round"/>
<path d="M79.1494 24.7884H77.7613V27.9514H76.1002V24.7884H71.3214V23.3092L74.621 12.2499H76.2822L72.9371 23.3092H76.1002V19.1904H77.7613V23.3092H79.1494V24.7884Z" fill="#4F46E5"/>
<path d="M61.9776 26.632L66.324 18.9177C66.5743 18.4854 66.7564 18.053 66.8929 17.6434C67.0294 17.2338 67.0977 16.7559 67.0977 16.2325V15.5954C67.0977 14.9355 66.9384 14.4348 66.6426 14.0707C66.3467 13.7066 65.8916 13.5246 65.3 13.5246C64.7766 13.5246 64.367 13.7066 64.0712 14.0707C63.7526 14.4348 63.6161 14.9355 63.6161 15.5726V16.4829H61.9776V15.4133C61.9776 14.3893 62.2735 13.5701 62.8879 12.9557C63.4795 12.3641 64.3215 12.0455 65.3682 12.0455C66.415 12.0455 67.2342 12.3641 67.8486 12.9557C68.4403 13.5701 68.7589 14.3893 68.7589 15.3906V16.2325C68.7589 16.8925 68.6678 17.4841 68.5086 17.9847C68.3265 18.5081 68.0762 19.077 67.7121 19.6914L63.8891 26.4727H68.6906V27.9518H61.9776V26.632Z" fill="#4F46E5"/>
<path d="M52.2309 23.9923V16.187C52.2309 13.4336 53.3686 12.0455 55.6442 12.0455C57.8971 12.0455 59.0348 13.4336 59.0348 16.187V23.9923C59.0348 26.7685 57.8971 28.1566 55.6442 28.1566C53.3686 28.1566 52.2309 26.7685 52.2309 23.9923ZM56.9868 26.0175C57.2371 25.5852 57.3737 24.8342 57.3737 23.742V16.4601C57.3737 15.3906 57.2371 14.6396 56.9868 14.1845C56.7365 13.7522 56.2814 13.5246 55.6442 13.5246C54.9843 13.5246 54.5292 13.7522 54.2789 14.1845C54.0058 14.6396 53.892 15.3906 53.892 16.4601V23.742C53.892 24.8342 54.0058 25.5852 54.2789 26.0175C54.5292 26.4727 54.9843 26.6775 55.6442 26.6775C56.2814 26.6775 56.7365 26.4727 56.9868 26.0175Z" fill="#4F46E5"/>
<path d="M47.3296 14.1842L45.0085 16.0046V14.0704L47.3296 12.2499H48.8543V27.9514H47.3296V14.1842Z" fill="#4F46E5"/>
<path d="M131.757 21.4317V27.9627H130.119V21.4317L126.683 12.2611H128.503L130.938 19.452L133.373 12.2611H135.194L131.757 21.4317Z" fill="#333333"/>
<path d="M120.106 19.8161L116.829 12.2611H118.695L121.084 18.1549L123.428 12.2611H125.294L121.995 19.7933L125.59 27.9627H123.701L121.062 21.4545L118.399 27.9627H116.533L120.106 19.8161Z" fill="#333333"/>
<path d="M107.123 26.9618C106.35 26.1653 105.963 24.982 105.963 23.3891V16.8354C105.963 15.2425 106.35 14.0365 107.123 13.24C107.897 12.4663 108.921 12.0567 110.218 12.0567C111.492 12.0567 112.539 12.4663 113.313 13.24C114.086 14.0365 114.473 15.2425 114.473 16.8354V23.3891C114.473 24.982 114.064 26.1653 113.29 26.9618C112.516 27.7582 111.492 28.1451 110.218 28.1451C108.921 28.1451 107.897 27.7582 107.123 26.9618ZM112.129 25.8467C112.585 25.3006 112.812 24.5041 112.812 23.4119V16.9947C112.812 15.8569 112.585 14.9922 112.152 14.4233C111.697 13.8544 111.06 13.5586 110.241 13.5586C109.353 13.5586 108.693 13.8544 108.261 14.4006C107.829 14.9694 107.624 15.8342 107.624 16.9947V23.4119C107.624 25.5737 108.489 26.6432 110.241 26.6432C111.06 26.6432 111.674 26.3929 112.129 25.8467Z" fill="#333333"/>
<path d="M98.6488 21.0904H96.1229V27.9627H94.4618V12.2611H98.6033C99.9687 12.2611 100.97 12.6252 101.607 13.3534C102.244 14.0816 102.563 15.1966 102.563 16.6985C102.563 18.9514 101.789 20.3395 100.242 20.8401L103.018 27.9627H101.243L98.6488 21.0904ZM96.1229 19.634H98.5806C99.377 19.634 99.9687 19.4065 100.333 18.9058C100.697 18.4052 100.902 17.677 100.902 16.6985C100.902 15.72 100.72 14.9918 100.356 14.4912C99.9914 13.9906 99.3998 13.7403 98.5806 13.7403H96.1229V19.634Z" fill="#333333"/>
<path d="M90.879 13.4217C91.5162 14.1954 91.8575 15.3332 91.8575 16.8351C91.8575 19.8388 90.5149 21.318 87.8298 21.318H85.4176V27.9627H83.7565V12.2611H87.8298C89.2179 12.2611 90.2419 12.648 90.879 13.4217ZM89.6047 19.1334C90.0143 18.6783 90.2191 17.9046 90.2191 16.8351C90.2191 15.7428 90.0143 14.9691 89.6047 14.4685C89.1951 13.9906 88.5807 13.7403 87.7387 13.7403H85.4176V19.8388H87.7387C88.5807 19.8388 89.1951 19.6113 89.6047 19.1334Z" fill="#333333"/>
</g>
<defs>
<clipPath id="clip0_266_4087">
<rect width="140" height="40" fill="white"/>
</clipPath>
</defs>
</svg>
