<svg width="160" height="32" viewBox="0 0 160 32" fill="none" xmlns="http://www.w3.org/2000/svg">
<g clip-path="url(#clip0_403_9572)">
<path d="M55.5078 25.3258V2.85303H59.6374V25.3258H55.5078Z" fill="#001A52"/>
<path d="M63.3984 25.3258V2.85303H72.2672C74.0678 2.85303 75.5676 3.21071 76.7626 3.93013C77.9576 4.64955 78.8518 5.58032 79.4492 6.72245C80.0467 7.86865 80.3434 9.05549 80.3434 10.2911C80.3434 11.5267 80.0467 12.7176 79.4492 13.8598C78.8518 15.0019 77.9576 15.9408 76.7626 16.6683C75.5676 17.3959 74.0678 17.7617 72.2672 17.7617H67.528V25.3217H63.3984V25.3258ZM72.2347 6.43794H67.528V14.1809H72.2347C73.1248 14.1809 73.8646 13.9939 74.4499 13.62C75.0352 13.246 75.4782 12.7583 75.7709 12.1608C76.0635 11.5633 76.2098 10.9496 76.2098 10.3236C76.2098 9.69769 76.0635 9.05956 75.7709 8.4702C75.4782 7.88491 75.0352 7.39717 74.4499 7.01104C73.8605 6.62491 73.1248 6.43387 72.2347 6.43387V6.43794Z" fill="#001A52"/>
<path d="M83.0469 25.3258V2.85303H91.7937C93.4114 2.85303 94.7933 3.1538 95.9395 3.74722C97.0817 4.34471 97.9555 5.15355 98.553 6.17781C99.1505 7.20207 99.4472 8.34826 99.4472 9.62453C99.4472 11.0634 99.0611 12.3437 98.2929 13.4655C97.5247 14.5873 96.411 15.4043 94.9519 15.9083L100.114 25.3217H95.529L90.7288 16.392H87.1764V25.3217H83.0469V25.3258ZM91.7328 6.43794H87.1764V13.0265H91.7328C92.8871 13.0265 93.7691 12.6973 94.3747 12.0389C94.9803 11.3804 95.2852 10.6081 95.2852 9.71394C95.2852 8.81975 94.9803 8.05562 94.3747 7.40529C93.7691 6.75903 92.8871 6.43387 91.7328 6.43387V6.43794Z" fill="#001A52"/>
<path d="M109.806 25.6307C108.046 25.6307 106.546 25.2364 105.311 24.4479C104.075 23.6594 103.14 22.631 102.502 21.367C101.864 20.1029 101.547 18.7413 101.547 17.2821C101.547 15.823 101.864 14.4613 102.502 13.1973C103.14 11.9332 104.075 10.9049 105.311 10.1164C106.546 9.32785 108.046 8.93359 109.806 8.93359C111.566 8.93359 113.09 9.32785 114.314 10.1164C115.537 10.9049 116.468 11.9332 117.106 13.1973C117.744 14.4613 118.061 15.823 118.061 17.2821C118.061 18.7413 117.744 20.1029 117.106 21.367C116.468 22.631 115.537 23.6594 114.314 24.4479C113.09 25.2364 111.586 25.6307 109.806 25.6307ZM109.806 22.2612C110.716 22.2612 111.481 22.0295 112.098 21.5621C112.716 21.0947 113.188 20.485 113.509 19.7249C113.834 18.9648 113.997 18.1519 113.997 17.2821C113.997 16.4123 113.834 15.571 113.509 14.8231C113.184 14.0752 112.716 13.4655 112.098 13.0022C111.481 12.5348 110.716 12.3031 109.806 12.3031C108.896 12.3031 108.156 12.5348 107.53 13.0022C106.9 13.4696 106.424 14.0752 106.103 14.8231C105.778 15.571 105.615 16.392 105.615 17.2821C105.615 18.1723 105.778 18.9689 106.103 19.7249C106.428 20.485 106.904 21.0987 107.53 21.5621C108.156 22.0295 108.916 22.2612 109.806 22.2612Z" fill="#001A52"/>
<path d="M121.13 31.2478C120.602 31.2478 120.008 31.2072 119.338 31.1259V27.8174C119.943 27.8783 120.451 27.9068 120.858 27.9068C121.89 27.9068 122.744 27.7402 123.422 27.4069C124.101 27.0736 124.674 26.4517 125.138 25.5412L119.094 9.23438H123.195L127.235 20.7126L131.214 9.23438H135.315L129.426 24.9356C128.617 27.0817 127.572 28.6709 126.296 29.7033C125.02 30.7357 123.301 31.2519 121.134 31.2519L121.13 31.2478Z" fill="#001A52"/>
<path d="M143.301 8.92578C144.334 8.92578 145.183 9.09243 145.854 9.42572C146.52 9.75901 147.049 10.1248 147.431 10.5191C147.817 10.9133 148.077 11.2344 148.219 11.4742H148.402V9.22656H152.442V25.3261H148.402V23.0785H148.219C148.077 23.3223 147.813 23.6434 147.431 24.0499C147.045 24.4563 146.52 24.8181 145.854 25.1432C145.187 25.4684 144.334 25.631 143.301 25.631C142.106 25.631 141.066 25.3912 140.172 24.9156C139.282 24.4401 138.538 23.8019 137.94 23.0012C137.343 22.2005 136.896 21.3063 136.603 20.3146C136.31 19.3228 136.164 18.3108 136.164 17.2784C136.164 16.246 136.31 15.2339 136.603 14.2422C136.896 13.2504 137.343 12.3562 137.94 11.5555C138.538 10.7548 139.282 10.1167 140.172 9.64114C141.062 9.16559 142.106 8.92578 143.301 8.92578ZM144.366 12.2343C143.456 12.2343 142.692 12.4822 142.074 12.9781C141.456 13.474 140.997 14.108 140.692 14.8762C140.387 15.6444 140.237 16.4452 140.237 17.2743C140.237 18.1035 140.387 18.9042 140.692 19.6724C140.997 20.4406 141.456 21.0746 142.074 21.5705C142.692 22.0664 143.456 22.3143 144.366 22.3143C145.277 22.3143 146.037 22.0664 146.642 21.5705C147.248 21.0746 147.703 20.4406 148.008 19.6724C148.313 18.9042 148.463 18.1035 148.463 17.2743C148.463 16.4452 148.313 15.6444 148.008 14.8762C147.703 14.108 147.248 13.474 146.642 12.9781C146.033 12.4822 145.277 12.2343 144.366 12.2343Z" fill="#001A52"/>
<path d="M155.969 25.3259L156.001 2.24756H160.009V25.3259H155.969Z" fill="#001A52"/>
<path d="M22.5547 25.3263L37.8861 4.73131C38.3332 4.12976 39.2843 4.4468 39.2843 5.19467V25.3263H22.5547Z" fill="#27D9E5" fill-opacity="0.65"/>
<path d="M16.7296 25.3263L1.3982 4.73131C0.951099 4.12976 0 4.4468 0 5.19467V25.3263H16.7296Z" fill="#27D9E5" fill-opacity="0.65"/>
<path d="M19.6438 21.4281L22.5459 25.326H39.2877L20.8876 0.625897C20.2657 -0.20733 19.0179 -0.20733 18.396 0.625897L0 25.326H16.7418L19.6438 21.4281Z" fill="#27D9E5" fill-opacity="0.9"/>
</g>
<defs>
<clipPath id="clip0_403_9572">
<rect width="160" height="31.2481" fill="white"/>
</clipPath>
</defs>
</svg>
