<?xml version="1.0" encoding="UTF-8"?>
<svg width="146px" height="28px" viewBox="0 0 146 28" version="1.1" xmlns="http://www.w3.org/2000/svg" xmlns:xlink="http://www.w3.org/1999/xlink">
    <title>ic/通用/logo/黑</title>
    <g id="页面-1" stroke="none" stroke-width="1" fill="none" fill-rule="evenodd">
        <g id="菜单-价格" transform="translate(-356, -70)">
            <g id="tab/头部" transform="translate(-0, 48)">
                <g id="ic/通用/logo/黑" transform="translate(356, 22)">
                    <rect id="矩形" x="0" y="0" width="146" height="28"></rect>
                    <g id="编组-2备份-3" fill="#1AB394" fill-rule="nonzero">
                        <g id="编组-2">
                            <path d="M3.824,4.654 L3.824,7.181 L2.20797243,8.10758779 L2.20797243,19.2650673 L11.9520917,24.8442177 L13.041,24.22 L13.041,26.749 L11.9520917,27.3729288 L0,20.5296966 L0,6.84323221 L3.824,4.654 Z M11.9520917,0 L23.9041833,6.84323221 L23.9041833,20.5296966 L15.249,25.484 L15.249,22.956 L21.6959349,19.2650673 L21.6959349,8.10758779 L11.9520917,2.52843744 L6.032,5.917 L6.032,3.389 L11.9520917,0 Z M3.83018968,9.02988676 C3.90011399,8.98960986 4.6343193,8.5667024 6.03280559,7.76116439 L6.03280559,17.075233 L9.191,18.883 L9.19187434,14.7813816 L11.4000482,14.7813816 L11.4000482,20.8034259 L11.3996693,22.6769028 L3.82466934,18.3398623 L3.82466934,9.03306652 Z M13.0559478,5.01165757 L15.2639478,6.27565757 L15.2641786,10.7443979 L18.0939478,7.89565757 L20.0699478,9.02765757 L15.4101786,13.7173979 L20.0749478,18.3416576 L18.0949478,19.4756576 L15.2641786,16.6673979 L15.2643525,21.0769284 L13.9839478,21.8296576 L13.0559478,22.3606576 L13.0559478,5.01165757 Z" id="形状结合"></path>
                        </g>
                    </g>
                    <path d="M31,21.6313358 L34.0466432,21.6313358 L34.0466432,3.06271573 L31,3.06271573 L31,21.6313358 Z M35.6869429,21.6313358 L43.1860517,21.6313358 L43.1860517,18.8530553 L35.6869429,18.8530553 L35.6869429,21.6313358 Z M86.007932,15.0452047 L88.5087639,15.0452047 C90.3822384,15.0452047 91.8677831,14.490025 92.8830703,13.5376456 C93.9765166,12.5850015 94.5231095,11.0769131 94.5231095,9.01470337 C94.5231095,7.03002829 93.9765166,5.52352759 92.8830703,4.57088356 C91.8677831,3.53964638 90.3822384,3.06279512 88.5087639,3.06279512 L86.007932,3.06279512 L86.007932,5.84081098 L88.3519245,5.84081098 C90.305903,5.84081098 91.3209296,6.87178353 91.3209296,9.01470337 C91.3209296,11.236481 90.305903,12.2671889 88.3519245,12.2671889 L86.007932,12.2671889 L86.007932,15.0452047 Z M81.3199469,21.6314152 L84.3676322,21.6314152 L84.3676322,3.06279512 L81.3199469,3.06279512 L81.3199469,21.6314152 Z M73.4664647,7.69230113 L76.3573107,7.69230113 L76.3573107,4.35910549 L73.4664647,4.35910549 L73.4664647,7.69230113 Z M73.4664647,21.5236341 L76.3573107,21.5236341 L76.3573107,10.1448303 L73.4664647,10.1448303 L73.4664647,21.5236341 Z M58.5297325,21.5236341 L61.4195363,21.5236341 L61.4195363,3 L58.5297325,3 L58.5297325,21.5236341 Z M66.4972749,7.95613061 L63.0606177,12.0030154 L63.0606177,16.1284933 L70.0131335,7.95613061 L66.4972749,7.95613061 Z M64.0756443,17.3984208 L66.9664903,21.5236341 L70.4813067,21.5236341 L65.9504215,15.1761139 L64.0756443,17.3984208 Z M51.4845981,21.7628536 C52.9680585,21.6832019 54.1399245,21.1280222 55.0004566,20.2550298 C55.9373241,19.3820373 56.3273382,18.1121099 56.3273382,16.525693 L56.3273382,12.9546009 C56.3273382,11.3679194 55.9373241,10.097992 55.076792,9.22499954 C54.2183442,8.35200713 52.9680585,7.79709198 51.4845981,7.71717573 L51.4845981,10.2572952 C52.8112192,10.4951916 53.4364923,11.3679194 53.4364923,12.7164399 L53.4364923,16.7633247 C53.4364923,18.1121099 52.8112192,18.9851023 51.4845981,19.2227341 L51.4845981,21.7628536 Z M49.8442983,21.7628536 L49.8442983,19.2227341 C48.515593,18.9851023 47.8116397,18.1121099 47.8116397,16.7633247 L47.8116397,12.7164399 C47.8116397,11.3679194 48.515593,10.4951916 49.8442983,10.2572952 L49.8442983,7.71717573 C48.2800734,7.79709198 47.1082074,8.35200713 46.2497596,9.22499954 C45.3915723,10.1776436 44.9213148,11.3679194 44.9213148,12.9546009 L44.9213148,16.525693 C44.9213148,18.1121099 45.3915723,19.3820373 46.2497596,20.2550298 C47.1082074,21.1280222 48.2800734,21.6832019 49.8442983,21.7628536 L49.8442983,21.7628536 Z M111.927664,21.7628536 C113.411125,21.6832019 114.582991,21.1280222 115.443523,20.2550298 C116.38039,19.3820373 116.770405,18.1121099 116.770405,16.525693 L116.770405,12.9546009 C116.770405,11.3679194 116.38039,10.097992 115.519858,9.22499954 C114.661411,8.35200713 113.411125,7.79709198 111.927664,7.71717573 L111.927664,10.2572952 C113.254285,10.4951916 113.879559,11.3679194 113.879559,12.7164399 L113.879559,16.7633247 C113.879559,18.1121099 113.254285,18.9851023 111.927664,19.2227341 L111.927664,21.7628536 Z M110.287365,21.7628536 L110.287365,19.2227341 C108.958659,18.9851023 108.254706,18.1121099 108.254706,16.7633247 L108.254706,12.7164399 C108.254706,11.3679194 108.958659,10.4951916 110.287365,10.2572952 L110.287365,7.71717573 C108.72314,7.79709198 107.551274,8.35200713 106.692826,9.22499954 C105.834639,10.1776436 105.364381,11.3679194 105.364381,12.9546009 L105.364381,16.525693 C105.364381,18.1121099 105.834639,19.3820373 106.692826,20.2550298 C107.551274,21.1280222 108.72314,21.6832019 110.287365,21.7628536 L110.287365,21.7628536 Z M100.403126,10.732624 C101.339993,10.4947276 102.435784,10.4161344 103.683986,10.6540308 L103.683986,7.9559312 C102.51212,7.7177702 101.418152,7.79742182 100.403126,8.27321459 L100.403126,10.732624 Z M95.8719799,21.6827379 L98.7628259,21.6827379 L98.7628259,8.11523446 L95.8719799,8.11523446 L95.8719799,21.6827379 Z M126.719516,16.2873061 L130.470633,21.6827115 L127.033194,21.6827115 L125.078955,18.7477739 L126.719516,16.2873061 Z M130.470633,8.11494337 L121.016243,21.6827115 L117.735644,21.6827115 L127.187949,8.11494337 L130.470633,8.11494337 Z M121.173343,8.11494337 L123.127322,11.1297971 L121.408342,13.5103487 L117.735644,8.11494337 L121.173343,8.11494337 Z M135.312435,27 L138.203281,27 L145,8.11515507 L142.109154,8.11515507 L135.312435,27 Z M136.094548,20.0965062 L137.578008,15.891112 L134.844002,8.11515507 L131.796577,8.11515507 L136.094548,20.0965062 Z" id="形状结合备份-4" fill="#041E39"></path>
                </g>
            </g>
        </g>
    </g>
</svg>