<svg xmlns="http://www.w3.org/2000/svg" viewBox="0 0 320 80" role="img" aria-label="Scamalytics">
  <rect width="320" height="80" rx="12" fill="#fff"/>
  <path d="M41 18c14.9 0 26.6 10.1 29.5 24.1H57.8C55.4 35 48.8 30.1 41 30.1c-9.9 0-17.9 8.1-17.9 17.9S31.1 66 41 66c7.8 0 14.4-4.9 16.8-12h12.7C67.6 67.9 55.9 78 41 78 24.5 78 11 64.5 11 48S24.5 18 41 18z" fill="#2f8fce"/>
  <path d="M41 34.8c7.3 0 13.2 5.9 13.2 13.2S48.3 61.2 41 61.2 27.8 55.3 27.8 48 33.7 34.8 41 34.8zm0 9.2a4 4 0 100 8 4 4 0 000-8z" fill="#2f8fce"/>
  <text x="82" y="53" font-family="Arial, Helvetica, sans-serif" font-size="34" font-weight="700" fill="#25364a">Scamalytics</text>
</svg>
