<svg width="206" height="32" viewBox="0 0 206 32" fill="none" xmlns="http://www.w3.org/2000/svg">
<path fill-rule="evenodd" clip-rule="evenodd" d="M74.1609 10.7845C72.7839 10.1102 71.2553 9.73327 69.6445 9.73327C69.4396 9.73327 69.235 9.73901 69.0334 9.75254C68.1998 9.74516 67.3621 9.85918 66.5517 10.1217C66.0316 10.2862 65.5521 10.4851 65.1123 10.709V9.28906H58.7109V29.0998C58.7109 30.7015 59.9064 31.998 61.3833 31.998H65.1123V17.4566C65.1262 17.4488 65.1406 17.441 65.1565 17.4332C66.1508 16.6719 67.3621 16.2257 68.6699 16.2257C69.1457 16.2257 69.609 16.2856 70.0545 16.3955L70.4425 15.868L72.3706 13.2479L74.1609 10.7845Z" fill="#FF7A00"/>
<path fill-rule="evenodd" clip-rule="evenodd" d="M20.066 22.9335C19.4025 23.8102 19.4025 24.9726 20.066 25.8497L24.7595 31.998H35.0184L24.1682 17.5469L20.066 22.9335Z" fill="#FF7A00"/>
<path fill-rule="evenodd" clip-rule="evenodd" d="M45.8589 31.997H50.4698V10.3203H43.2598V29.1884C43.2598 30.7398 44.4232 31.997 45.8589 31.997Z" fill="#FF7A00"/>
<mask id="mask0_418_40063" style="mask-type:alpha" maskUnits="userSpaceOnUse" x="0" y="0" width="23" height="32">
<path fill-rule="evenodd" clip-rule="evenodd" d="M0 0H22.66V31.9989H0V0Z" fill="white"/>
</mask>
<g mask="url(#mask0_418_40063)">
<path fill-rule="evenodd" clip-rule="evenodd" d="M21.5481 13.2097L10.9651 0H0.116156L11.853 14.7785C12.4125 15.4621 12.5081 16.32 11.9873 17.1024L-0.000244141 31.9989H11.2073L21.7282 18.7298C23.085 17.0699 22.9041 14.8696 21.5481 13.2097Z" fill="#FF7A00"/>
</g>
<mask id="mask1_418_40063" style="mask-type:alpha" maskUnits="userSpaceOnUse" x="19" y="0" width="17" height="15">
<path fill-rule="evenodd" clip-rule="evenodd" d="M19.5703 0H35.0203V14.4511H19.5703V0Z" fill="white"/>
</mask>
<g mask="url(#mask1_418_40063)">
<path fill-rule="evenodd" clip-rule="evenodd" d="M24.0328 14.4513L35.0203 0H24.7999L20.0613 6.1872C19.4067 7.04213 19.4067 8.17473 20.0613 9.02966L24.0328 14.4513Z" fill="#FF7A00"/>
</g>
<path fill-rule="evenodd" clip-rule="evenodd" d="M37.932 0L32.9609 6.19334H56.9836C58.5063 6.19334 59.7409 5.03554 59.7409 3.60769V0H37.932Z" fill="#FF7A00"/>
<path fill-rule="evenodd" clip-rule="evenodd" d="M201.484 10.6104C201.28 10.6104 201.075 10.6159 200.873 10.6289C200.039 10.6214 199.202 10.731 198.392 10.9833C197.872 11.1413 197.392 11.3325 196.952 11.5477V10.3203H190.551V29.0263C190.551 30.6671 191.828 31.997 193.402 31.997H196.952V18.0287C196.966 18.0212 196.98 18.0137 196.997 18.0066C197.991 17.2751 199.202 16.8467 200.51 16.8467C200.986 16.8467 201.449 16.9042 201.894 17.0098L202.283 16.5033L204.21 13.9863L206.001 11.6202C204.624 10.9722 203.095 10.6104 201.484 10.6104Z" fill="#FF7A00"/>
<path fill-rule="evenodd" clip-rule="evenodd" d="M158.417 7.55135C158.417 6.61205 159.203 5.85017 160.173 5.85017H162.098L166.86 0H158.041C154.378 0 151.41 2.87692 151.41 6.4266V29.1545C151.41 29.2035 151.412 29.2525 151.414 29.3018C151.484 30.6474 152.52 31.7476 153.866 31.9612C154.021 31.9857 154.18 31.9989 154.343 31.9989L158.421 31.9612L158.417 7.55135Z" fill="#FF7A00"/>
<path fill-rule="evenodd" clip-rule="evenodd" d="M187.44 20.4728C187.08 14.691 182.198 10.1391 176.296 10.3259C170.694 10.5036 166.105 15.0301 165.844 20.641C165.555 26.8622 170.502 31.997 176.646 31.997C176.798 31.997 176.949 31.9942 177.1 31.9883C177.154 31.9851 177.209 31.9835 177.264 31.9792C177.407 31.9717 177.55 31.961 177.692 31.9475C177.74 31.9428 177.788 31.9368 177.836 31.9325C178.097 31.9036 178.353 31.866 178.606 31.8189C178.679 31.8055 178.753 31.792 178.825 31.777C178.969 31.7481 179.11 31.7164 179.25 31.6804C179.315 31.665 179.378 31.6487 179.441 31.6305C179.569 31.5973 179.696 31.5609 179.821 31.5217C179.867 31.5083 179.914 31.4932 179.961 31.4782C179.988 31.4707 180.014 31.4616 180.039 31.4525C180.092 31.4358 180.143 31.4176 180.194 31.3994C180.256 31.3784 180.319 31.3575 180.38 31.3333C180.502 31.2878 180.624 31.2411 180.744 31.1913C180.985 31.0931 181.222 30.9859 181.452 30.8699C181.511 30.841 181.568 30.8125 181.625 30.7825C181.797 30.6918 181.967 30.598 182.133 30.4999C182.244 30.435 182.354 30.3689 182.462 30.2977C182.516 30.2632 182.569 30.2284 182.623 30.192C182.73 30.1212 182.836 30.0472 182.94 29.9731C183.045 29.898 183.147 29.8208 183.249 29.7424C184.669 28.6422 185.81 27.1966 186.542 25.5317H180.259C179.234 26.3817 177.906 26.8792 176.46 26.8325C173.567 26.7395 171.171 24.4133 170.993 21.5184C170.791 18.2198 173.4 15.4817 176.646 15.4817C179.059 15.4817 181.119 16.9926 181.935 19.1206H173.362V20.6881C173.362 22.3352 174.694 23.6709 176.338 23.6709H184.483H187.17C187.289 23.1683 187.373 22.6506 187.419 22.1239C187.432 21.9684 187.443 21.8116 187.452 21.6529C187.452 21.6395 187.453 21.6245 187.453 21.6106C187.456 21.5413 187.458 21.4721 187.459 21.4024C187.46 21.3225 187.462 21.241 187.462 21.1595C187.462 20.9287 187.455 20.7008 187.44 20.4728Z" fill="#FF7A00"/>
<path fill-rule="evenodd" clip-rule="evenodd" d="M144.031 12.5752V10.3203H130.352C126.623 10.3203 123.599 13.3047 123.599 16.986C123.599 20.6677 126.623 23.6521 130.352 23.6521H138.257C139.122 23.6521 139.824 24.3446 139.824 25.1989C139.824 26.0533 139.122 26.7458 138.257 26.7458H124.08V29.0007C124.08 30.6557 125.439 31.997 127.115 31.997H138.342C142.146 31.997 145.229 28.9534 145.229 25.1989C145.229 21.4441 142.146 18.4005 138.342 18.4005H130.352C129.561 18.4005 128.919 17.7672 128.919 16.986C128.919 16.2048 129.561 15.5715 130.352 15.5715H140.996C142.672 15.5715 144.031 14.2302 144.031 12.5752Z" fill="#FF7A00"/>
<path fill-rule="evenodd" clip-rule="evenodd" d="M161.87 14.4502H147.289V9.28906H164.799V11.5075C164.799 13.1325 163.488 14.4502 161.87 14.4502Z" fill="#FF7A00"/>
<path fill-rule="evenodd" clip-rule="evenodd" d="M120.487 19.8583C120.257 15.5002 116.488 11.6219 112.453 10.9116C110.848 10.6302 109.168 10.767 107.646 11.3705C107.483 11.4338 106.334 11.8598 106.334 12.0417V10.3203H99.9121V31.997H103.331C104.991 31.997 106.339 30.6737 106.348 29.0345C106.362 26.2733 106.388 22.3116 106.424 20.4602C106.432 20.0658 106.439 19.7681 106.447 19.5966C106.458 19.3855 106.48 19.1824 106.516 18.9867C106.951 17.2594 108.513 15.98 110.371 15.98C112.475 15.98 114.197 17.6172 114.34 19.6903C114.341 19.7322 114.343 19.7741 114.344 19.816V20.1954V31.9745H120.487V22.999C120.487 22.0508 120.543 20.948 120.487 19.8583Z" fill="#FF7A00"/>
<path fill-rule="evenodd" clip-rule="evenodd" d="M90.1942 10.3203V11.8132C87.1179 9.6453 81.8866 9.74343 78.6187 12.9673C75.3748 16.1699 74.5903 20.0462 75.6047 24.3353C76.9877 30.1939 82.6059 33.1227 87.6971 31.5812V26.3433C87.1818 26.4984 86.6277 26.5799 86.0434 26.5736C83.0145 26.5435 80.8717 24.2886 80.8796 21.1399C80.887 18.0667 83.0773 15.7964 86.0418 15.7873C87.7752 15.7813 89.2469 16.524 90.1942 17.7399V23.9618V24.6423V29.0148C90.1942 30.6616 91.5187 31.997 93.1521 31.997H96.8195V10.3203H90.1942Z" fill="#FF7A00"/>
</svg>
