<?xml version="1.0" encoding="utf-8"?>
<!-- Generator: Adobe Illustrator 26.2.1, SVG Export Plug-In . SVG Version: 6.00 Build 0)  -->
<svg version="1.1" id="图层_1" xmlns="http://www.w3.org/2000/svg" xmlns:xlink="http://www.w3.org/1999/xlink" x="0px" y="0px"
	 viewBox="0 0 457 80" style="enable-background:new 0 0 457 80;" xml:space="preserve">
<style type="text/css">
	.st0{fill:#131C4E;}
	.st1{fill:#377FFF;}
</style>
<g>
	<g>
		<path class="st0" d="M128.3,64.95l19.54-28.5h-17.36v-9.03h31.61v6.15l-19.54,28.42h20.24v9.03H128.3V64.95z"/>
		<path class="st0" d="M171.05,58.8V8.9h11.45v50.37c0,2.65,1.17,3.5,2.26,3.5c0.47,0,0.78,0,1.56-0.16l1.4,8.49
			c-1.32,0.54-3.19,1.01-5.84,1.01C173.85,72.12,171.05,66.9,171.05,58.8z"/>
		<path class="st0" d="M194.72,14.11c0-3.74,2.57-6.23,6.62-6.23c3.89,0,6.62,2.49,6.62,6.23c0,3.81-2.73,6.23-6.62,6.23
			C197.29,20.34,194.72,17.93,194.72,14.11z M195.58,27.43h11.45v43.6h-11.45V27.43z"/>
		<path class="st0" d="M216.76,49.23c0-14.17,8.95-22.89,18.3-22.89c4.9,0,7.94,1.87,11.06,4.75l-0.39-6.85V8.9h11.45v62.13h-9.34
			l-0.86-4.52h-0.31c-3.19,3.19-7.55,5.61-12.07,5.61C223.69,72.12,216.76,63.55,216.76,49.23z M245.72,58.18V39.03
			c-2.65-2.41-5.37-3.27-8.18-3.27c-4.91,0-9.03,4.67-9.03,13.31c0,9.11,3.27,13.63,9.03,13.63
			C240.58,62.7,243.23,61.45,245.72,58.18z"/>
		<path class="st0" d="M266.67,49.23c0-14.48,10.43-22.89,22.27-22.89c5.37,0,9.5,2.02,12.69,4.91l-5.45,7.24
			c-2.18-1.79-4.2-2.8-6.62-2.8c-6.7,0-11.21,5.37-11.21,13.55c0,8.25,4.52,13.55,10.82,13.55c3.19,0,6.07-1.48,8.49-3.5l4.52,7.55
			c-4.13,3.66-9.42,5.3-14.25,5.3C275.94,72.12,266.67,63.71,266.67,49.23z"/>
		<path class="st0" d="M309.81,64.64c0-4.28,3.04-7.47,7.16-7.47c4.05,0,7.09,3.19,7.09,7.47c0,4.2-3.04,7.48-7.09,7.48
			C312.84,72.12,309.81,68.85,309.81,64.64z"/>
		<path class="st0" d="M335.74,27.43h9.34l0.86,5.76h0.23c3.82-3.74,8.25-6.85,14.17-6.85c9.42,0,13.47,6.54,13.47,17.52v27.17
			h-11.44V45.25c0-6.77-1.87-9.11-6.15-9.11c-3.5,0-5.84,1.71-9.03,4.9v29.98h-11.45V27.43z"/>
		<path class="st0" d="M382.92,49.23c0-14.09,9.97-22.89,20.32-22.89c11.99,0,18.22,8.72,18.22,20.87c0,2.1-0.23,4.2-0.54,5.29
			h-26.86c0.93,7.08,5.61,10.74,12.15,10.74c3.5,0,6.54-1.01,9.73-2.96l3.89,7.01c-4.28,2.96-9.81,4.83-15.18,4.83
			C392.42,72.12,382.92,63.63,382.92,49.23z M411.65,44.79c0-5.84-2.57-9.58-8.25-9.58c-4.59,0-8.64,3.27-9.58,9.58H411.65z"/>
		<path class="st0" d="M431.59,55.84V36.46h-6.15v-8.49l6.77-0.54l1.32-11.76h9.42v11.76h10.82v9.03h-10.82v19.31
			c0,4.98,2.1,7.32,6,7.32c1.4,0,3.11-0.47,4.28-0.93l1.95,8.33c-2.41,0.7-5.45,1.64-9.27,1.64
			C435.56,72.12,431.59,65.5,431.59,55.84z"/>
	</g>
	<g>
		<g>
			<polygon class="st1" points="48.35,19.26 1.82,78.77 21.84,78.77 82.46,1.23 1.82,1.23 1.82,19.26 			"/>
		</g>
		<g>
			<polygon class="st1" points="62.77,60.74 109.3,1.23 89.28,1.23 28.66,78.77 109.3,78.77 109.3,60.74 			"/>
		</g>
	</g>
</g>
</svg>
